<svg id="visual" viewBox="0 0 900 600" width="900" height="600" xmlns="http://www.w3.org/2000/svg" xmlns:xlink="http://www.w3.org/1999/xlink" version="1.1"><rect x="0" y="0" width="900" height="600" fill="#181717"></rect><defs><linearGradient id="grad1_0" x1="33.3%" y1="0%" x2="100%" y2="100%"><stop offset="20%" stop-color="#444444" stop-opacity="1"></stop><stop offset="80%" stop-color="#444444" stop-opacity="1"></stop></linearGradient></defs><defs><linearGradient id="grad1_1" x1="33.3%" y1="0%" x2="100%" y2="100%"><stop offset="20%" stop-color="#444444" stop-opacity="1"></stop><stop offset="80%" stop-color="#181717" stop-opacity="1"></stop></linearGradient></defs><defs><linearGradient id="grad2_0" x1="0%" y1="0%" x2="66.7%" y2="100%"><stop offset="20%" stop-color="#444444" stop-opacity="1"></stop><stop offset="80%" stop-color="#444444" stop-opacity="1"></stop></linearGradient></defs><defs><linearGradient id="grad2_1" x1="0%" y1="0%" x2="66.7%" y2="100%"><stop offset="20%" stop-color="#181717" stop-opacity="1"></stop><stop offset="80%" stop-color="#444444" stop-opacity="1"></stop></linearGradient></defs><g transform="translate(900, 0)"><path d="M0 270.4C-29.6 254.8 -59.3 239.1 -94.9 229.1C-130.5 219.1 -172.2 214.8 -191.2 191.2C-210.3 167.6 -206.7 124.6 -216.2 89.5C-225.6 54.5 -248 27.2 -270.4 0L0 0Z" fill="#2d2d2d"></path><path d="M0 135.2C-14.8 127.4 -29.6 119.6 -47.5 114.6C-65.3 109.6 -86.1 107.4 -95.6 95.6C-105.1 83.8 -103.4 62.3 -108.1 44.8C-112.8 27.2 -124 13.6 -135.2 0L0 0Z" fill="#444444"></path></g><g transform="translate(0, 600)"><path d="M0 -270.4C29.7 -255.2 59.4 -240 95.3 -230C131.2 -220.1 173.4 -215.5 191.2 -191.2C209 -166.9 202.4 -122.8 211.6 -87.6C220.7 -52.5 245.6 -26.2 270.4 0L0 0Z" fill="#2d2d2d"></path><path d="M0 -135.2C14.8 -127.6 29.7 -120 47.6 -115C65.6 -110.1 86.7 -107.8 95.6 -95.6C104.5 -83.4 101.2 -61.4 105.8 -43.8C110.4 -26.2 122.8 -13.1 135.2 0L0 0Z" fill="#444444"></path></g></svg>